# xmcd CD database file
#
# Track frame offsets:
#	150
#	18273
#	35583
#	55212
#	75879
#	99217
#	119784
#	137699
#	157314
#	177318
#	194871
#	218991
#
# Disc length: 3185 seconds
#
# Revision: 3
# Processed by: cddbd v1.5.2PL0 Copyright (c) Steve Scherf et al.
# Submitted via: CDex 1.70beta3
#
DISCID=aa0c6f0c
DTITLE=美郷あき - Sincerely
DYEAR=2006
DGENRE=Anime
TTITLE0=明日をとめないで
TTITLE1=夢にみた楽園
TTITLE2=Silent wing
TTITLE3=少女迷路でつかまえて (berry's maturing ver.)
TTITLE4=モンタージュ
TTITLE5=君が空だった
TTITLE6=UNLIMITED FIRE
TTITLE7=Goal to NEW WORLD
TTITLE8=before
TTITLE9=true love？
TTITLE10=ふたりが忘れない
TTITLE11=君が空だった (accoustic ver.)
EXTD=YEAR: 2006
EXTT0=
EXTT1=
EXTT2=
EXTT3=
EXTT4=
EXTT5=
EXTT6=
EXTT7=
EXTT8=
EXTT9=
EXTT10=
EXTT11=
PLAYORDER=
